<svg width="184" height="172" xmlns="http://www.w3.org/2000/svg" xmlns:xlink="http://www.w3.org/1999/xlink"><defs><path d="M69.125.214c32.591.52 81.65 15.928 81.2 25.608-.468 9.68-3.261 31.426-25.746 66.84-9.62 15.174-25.493 30.348-37.834 40.926l-12.738 10.397S8.373 78.618 1.6 59.96l4.865-23.363-6.396-20.85 10.918-4.453c1.513-.539 3.062-1.06 4.666-1.563" id="a"/><path id="c" d="M0 .367h141.1v94.28H0z"/><path id="e" d="M.018.367h183.979v171.158H.018z"/><path d="M107.842 36.383c.144 2.623-.018 5.442-.072 6.753-.036.485-.072.79-.072.79-.288-.251-.577-.485-.847-.718-1.279-1.06-2.486-1.85-4.162-2.407a8.868 8.868 0 0 0-.36-.107c-1.297-.396-2.81-.611-4.757-.7a6.565 6.565 0 0 0-.612-.037c-2.36-.09-5.333-.018-9.26.234-.198 0-.379.018-.559.036-.126 0-.27.018-.414.035-.342.036-.685.072-1.01.126-3.927.61-7.386 2.245-10.359 4.615-.738.593-5.134 4.4-5.89 5.136-9.37 9.16-14.954 22.807-15.153 23.274 1.892-2.82 5.423-6.196 9.35-9.464-1.188 3.879-1.963 7.956-2.377 12.05-.018.359-.055.7-.09 1.041-.018.341-.055.683-.073 1.024-.054.7-.09 1.401-.108 2.083a78.506 78.506 0 0 0-.036 2.065c0 .467 0 .916.018 1.365 0 .197.018.413.018.629.019.233.019.448.036.682l.055.682c.017.27.053.521.072.79.018.36.072.701.108 1.042.017.198.035.377.072.575.144 1.077.324 2.119.558 3.16.036.144.054.288.09.414.036.161.09.34.126.502.127.557.27 1.096.433 1.635.072.269.144.538.234.807.072.252.162.521.252.79.216.701.468 1.401.739 2.084.108.269.198.52.306.772l.324.754c.109.27.234.521.343.772.072.18.162.36.234.54.324.664.648 1.346.99 1.992.073.162.163.342.253.504.144.25.288.502.432.772.127.233.27.484.415.718.144.233.288.485.45.736.144.234.288.485.45.736.307.503.631.988.956 1.473l.504.736c.27.395.559.773.829 1.15.252.359.54.736.828 1.095.307.413.631.79.937 1.185.235.287.505.593.757.898.27.324.559.647.847.97.72.826 1.46 1.616 2.162 2.335-4.306-2.748-13.494-9.087-17.98-15.75.198.485 6.521 15.947 17.025 24.998-.018.018-.054.036-.072.054-.234.197-.468.359-.685.539-.306.233-.594.449-.865.646-.252.197-.522.377-.774.557-1.063.736-1.928 1.239-2.523 1.598-.324.197-.756.485-.918.61-.162-.125-.667-.7-.757-.754-.306-.323-.649-.718-1.045-1.167-2.955-3.34-8.233-9.392-9.35-11.278-1.586-2.675-3.568-6.716-5.225-12.301-3.28-11.08-2.612-17.527-2.612-17.527-1.856 3.43-4.037 11.996-3.424 20.526l-2.18-2.227c-1.405-5.62-1.063-11.08-.865-15.839.757-17.85 7.297-27.457 7.91-28.32l-2.703 2.802c-2.612 2.496-11.945 12.265-16.629 28.158-.108.377-.414 1.347-.522 1.742l-2.27-2.496c-1.46-7.29-2.126-20.436 6.791-34.497-.09.09-.9.825-2.107 2.244-2.18 2.263-6.45 7.255-9.82 14.69C25.742 63.5 29.868 52.24 39.867 41.52c0 0-1.207.737-3.135 2.3 0 .017-.018.017-.018.017-4.396 3.125-14.63 11.547-21.44 26.021 0 0-1.657-2.155-1.639-2.244.27-2.03.757-4.454 1.567-7.202 2.63-8.925 5.928-13.001 5.928-13.001-2.775 1.508-8.071 6.41-11.387 12.48 1.568-9.607 6.252-22.986 19.206-34.946.054-.053.09-.108.144-.143l.018-.018c-.955.323-13.368 4.92-23.962 17.616a51.476 51.476 0 0 1 1.892-4.687c3.91-8.458 7.783-12.05 7.783-12.05-2.522.934-7.314 3.807-11.206 8.1-.27.287-3.333 3.627-3.333 3.627.342-.539.685-1.078 1.009-1.58.216-.36.432-.683.649-1.024 4.071-6.303 6.954-9.859 9.62-12.175.144-.108.27-.216.397-.324 2.666-.52 5.837-.664 8.215-.682.523 0 2.775-.054 2.775-.054h-.019c-.017 0-.035-.018-.072-.018-1.279-.144-2.54-.485-3.693-.898-.108-.036-.234-.09-.342-.126-.144-.053-.27-.107-.414-.161a31.672 31.672 0 0 1-3.604-1.724c-.018-.018-.036-.036-.054-.036-.054-.018-.108-.054-.162-.09l-.108-.054c-.018 0-.036-.018-.054-.036a15.489 15.489 0 0 1-3.063-3.376l-.396-.646C8.265 9.913 7.544 4.544 7.346 1.832c0-.107-.017-.215-.017-.323 0-.198-.019-.36-.019-.52C7.292.934 7.292.88 7.292.826V.054c.252.198.523.395.793.575.252.198.522.36.793.539.252.18.522.341.792.503.289.18.577.359.883.52.252.144.505.288.757.414.27.161.54.305.829.43.27.144.558.27.846.395.577.252 1.135.503 1.712.719.27.108.576.216.865.323.162.072.342.126.504.18.235.09.45.161.685.233.054.018.126.036.18.054.253.09.505.162.757.233.576.18 1.153.342 1.73.467.288.072.594.144.882.198.18.054.36.09.559.126 3.153.646 6.323.97 9.422 1.095.613.036 1.244.054 1.856.072 3.477.09 6.99 0 10.503-.144.901-.018 1.784-.054 2.667-.09.81-.035 1.622-.054 2.432-.09 3.243-.125 6.432-.233 9.513-.161 1.387.018 2.684.072 3.873.126l1.027.053c1.226.073 2.342.162 3.352.252.828.09 1.603.18 2.323.287.18.036.379.072.559.09.18.018.36.054.54.09.073 0 .145.018.217.036l.27.054c.342.054.667.126.973.197a8.412 8.412 0 0 1 1.91.7c.198.108.378.198.576.306 0 .018.018.018.036.036.396.215.775.467 1.153.736l.216.162c.289.197.577.43.847.646.325.27.649.557.937.844a20.56 20.56 0 0 1 1.514 1.634c.072.072.125.144.18.216l.017.018c.055.072.09.107.127.162.018.035.036.035.036.053.018.018.018.036.036.054.198.287.396.593.612.898l.523.79 2.162 3.233-6.288 2.873s8.251-.43 9.801-.467c.576 0 1.315-.018 2.27 0 .252 0 .54 0 .847.018h.36c.144.018.307.018.469.018.558.018 1.207.036 1.892.054.216 0 .432.018.666.036.414.036.829.072 1.243.144.198.035.414.071.63.107.217.054.415.09.631.144.198.036.415.09.63.143.199.055.415.108.631.18.217.054.415.126.631.198.18.053.36.126.522.18.45.179.901.358 1.352.556.216.09.414.197.612.287.162.09.324.162.487.252.306.161.612.323.9.503.18.107.36.215.523.323.18.126.378.251.559.377.378.233.72.503 1.08.772a18.92 18.92 0 0 1 2.397 2.245c.162.162.288.323.432.485.144.161.27.34.415.502.125.18.252.342.378.521.234.324.45.647.648.988.45.736.829 1.509 1.135 2.317.109.305.217.646.307 1.005.054.323.126.665.198 1.042" id="g"/></defs><g fill="none" fill-rule="evenodd"><path d="M26.719 48.153c-3.08 2.982-7.08 7.704-9.999 14.097l-.415.898c-4.287-12.408-5.206-21.1-5.459-26.29-.144-2.891 4.126-6.286 11.045-9.626v3.466c0 .162.018.341.018.45l.017.359c0 .269.019.538.037.7.288 3.43 1.225 10.092 4.756 15.946" fill="#BD094B"/><path d="M150.222 22.33l-.019-.018a129.46 129.46 0 0 0-3.44-1.15c-.108-.035-.235-.071-.343-.107-.288-.09-.594-.198-.883-.287-.144-.055-.306-.09-.45-.144-.649-.198-1.315-.413-1.982-.61-.378-.126-.774-.234-1.153-.342-.666-.197-1.315-.395-2-.574-.45-.126-.919-.252-1.37-.396-.612-.18-1.242-.341-1.855-.502-.504-.144-1.009-.27-1.531-.413a64.847 64.847 0 0 0-1.784-.45c-.54-.143-1.08-.269-1.639-.412a60.05 60.05 0 0 0-1.73-.414c-.576-.125-1.135-.27-1.711-.395-.559-.125-1.135-.25-1.694-.377l-1.73-.377c-.576-.125-1.152-.233-1.73-.36-.575-.107-1.134-.233-1.71-.34-.595-.108-1.19-.234-1.784-.342-.559-.107-1.1-.197-1.658-.305-.612-.107-1.243-.215-1.855-.323-.523-.09-1.027-.18-1.55-.251a75.763 75.763 0 0 0-1.964-.306l-1.405-.215a82.163 82.163 0 0 0-2.108-.287l-1.243-.162c-.757-.09-1.513-.18-2.252-.27l-1.045-.107c-.81-.09-1.621-.162-2.432-.251-.27-.018-.54-.055-.811-.073-.883-.071-1.766-.143-2.63-.215-.18-.018-.36-.018-.54-.036l-2.811-.161c-.109 0-.199-.019-.306-.019-1.01-.035-2.019-.071-3.01-.09h-.035c-.99.019-1.981.055-3.008.09-.108 0-.198.019-.306.019-.938.036-1.874.09-2.81.161-.181.018-.361.018-.541.036-.865.054-1.748.126-2.63.215-.271.018-.541.055-.812.073-.81.071-1.621.161-2.432.251-.342.036-.685.072-1.045.107l-2.252.27-1.243.162c-.703.09-1.405.197-2.108.287l-1.405.215c-.649.108-1.315.198-1.964.306-.523.09-1.027.161-1.55.25-.612.109-1.243.217-1.855.324-.559.09-1.099.198-1.658.305-.594.108-1.189.234-1.783.342-.577.107-1.135.233-1.712.34-.576.127-1.153.235-1.73.36l-1.729.377c-.577.126-1.135.252-1.694.377-.576.126-1.135.27-1.71.395-.578.144-1.154.27-1.73.414-.541.125-1.081.27-1.64.413-.594.143-1.19.305-1.784.449-.504.125-1.027.269-1.53.413-.632.161-1.244.34-1.857.502a30.8 30.8 0 0 0-1.37.396c-.666.197-1.332.377-1.999.574-.396.108-.774.234-1.153.341-.666.198-1.333.413-1.982.61-.144.055-.306.09-.45.145-.307.09-.595.197-.883.287-.108.036-.234.072-.342.107-1.171.378-2.324.773-3.441 1.15l-.018.018c-13.603 4.759-23.242 10.2-23.026 14.51.469 9.661 3.261 31.426 25.746 66.84 9.621 15.174 25.493 30.33 37.834 40.926l17.62 14.42 4.883-4.022 12.738-10.398c12.341-10.577 28.213-25.752 37.834-40.926 22.485-35.414 25.277-57.16 25.746-66.84.198-4.292-9.423-9.733-23.025-14.51" fill="#BD094B"/><g transform="translate(22.922 11.036)"><mask id="b" fill="#fff"><use xlink:href="#a"/></mask><path d="M69.125.214C52.676.484 32.01 4.542 15.652 9.73a129.352 129.352 0 0 0-4.666 1.563L.068 15.748l6.396 20.849L1.599 59.96c6.774 18.658 72.408 84.025 72.408 84.025l12.738-10.397c12.34-10.578 28.214-25.752 37.834-40.927 22.485-35.413 25.278-57.16 25.746-66.84.45-9.679-48.609-25.086-81.2-25.607" mask="url(#b)"/></g><g transform="translate(.041 .108)"><mask id="d" fill="#fff"><use xlink:href="#c"/></mask><path d="M18.715 94.647C7.095 73.438.825 54.187.013 37.253c-.125-2.82.56-7.094 4.631-11.422C17.039 12.668 62.945.834 91.825.367h.36c14.198.234 48.915 7.74 48.915 7.74-28.177 50.264-91.235 80.02-122.385 86.54" fill="#FFF" opacity=".14" mask="url(#d)"/></g><path d="M95.38 52.338c-.199-.162-1.964-1.527-4.81-3.053-.09-.054-.199-.108-.307-.162-.072-.054-.162-.09-.234-.126a31.634 31.634 0 0 0-1.748-.843c-2.126 1.005-5.044 1.49-8.486.556-2.882-.772-4.9-3.16-5.819-4.4-3.225-.395-8.378-1.382-8.378-1.382h11.387c4.648-.126 6.035.25 9.152 1.49 1.063.413 2.45 1.365 3.874 2.55.09.072.162.144.234.198l.306.251c1.802 1.527 3.585 3.34 4.829 4.92" fill="#032336"/><g transform="translate(.041 .108)"><mask id="f" fill="#fff"><use xlink:href="#e"/></mask><path d="M147.46 103.572c-9.62 15.174-25.493 30.33-37.834 40.926l-4.847-4.885a44.74 44.74 0 0 1-2.198-2.352c-.216-.251-.432-.503-.667-.754l-.072-.09a18.22 18.22 0 0 0-.558-.647l-.072-.09a21.37 21.37 0 0 1-.757-.951l-.072-.108a25 25 0 0 1-.63-.826l-.054-.072c-.217-.305-.45-.61-.649-.897l-.45-.647c-.27-.395-.523-.79-.775-1.221l-.09-.144c-.09-.144-.18-.287-.289-.485l-.108-.197c-.072-.126-.144-.252-.234-.395l-.09-.162c-.09-.161-.18-.305-.288-.503l-.072-.125a8.48 8.48 0 0 1-.306-.557l-.235-.45a33.12 33.12 0 0 1-.793-1.597l-.432-.988-.36-.862a9.734 9.734 0 0 1-.18-.467l-.036-.108a38.873 38.873 0 0 1-.559-1.58l-.036-.126c-.054-.18-.126-.377-.198-.628-.072-.216-.126-.431-.198-.647a23.645 23.645 0 0 1-.343-1.329l-.053-.215-.037-.144-.036-.162-.036-.18a39.83 39.83 0 0 1-.468-2.621l-.018-.09c-.018-.053-.018-.125-.036-.215l-.018-.144c-.018-.215-.054-.43-.072-.664l-.018-.162c-.018-.197-.036-.377-.054-.593l-.018-.09c-.018-.143-.018-.287-.036-.484l-.019-.108c0-.09 0-.18-.017-.287l-.018-.611c-.018-.359-.018-.736-.018-1.113 0-.593.018-1.168.036-1.832.017-.592.054-1.167.09-1.814.018-.287.036-.593.072-.88.018-.287.054-.592.09-.898.594-6.015 2.072-11.672 4.306-16.395l.054-.108c.072-.162.144-.305.252-.503l.108-.233c.072-.144.145-.287.234-.467l.108-.216c.055-.125.127-.251.199-.359l.108-.197c.09-.162.162-.306.252-.45l.162-.25 1.405-2.138.109-.161c.09-.126.18-.252.288-.396l.216-.287.577-.7c.162-.198.324-.377.522-.593.973-1.06 1.982-2.011 3.099-2.693 3.513-2.12 7.981-3.718 11.909-3.646 3.927.072 8.36.862 11.872 3.717 4.036 3.359 6.594 6.196 7.928 8.261l1.117 1.94 1.567-16.27s.036-.342.09-.934c.126-1.617.306-4.777.144-7.92a32.818 32.818 0 0 0-.306-2.963l-.018-.161c-.09-.503-.18-.97-.288-1.419l-.018-.09a17.034 17.034 0 0 0-.613-2.03 20.461 20.461 0 0 0-1.801-3.68 36.855 36.855 0 0 0-.901-1.383 16.962 16.962 0 0 0-.72-.97c-.181-.216-.343-.43-.523-.647-.217-.269-.45-.538-.65-.754a27.85 27.85 0 0 0-3.44-3.196 25.184 25.184 0 0 0-1.46-1.06c-.162-.125-.342-.233-.522-.341l-.378-.251c-.198-.126-.415-.252-.649-.395-.396-.234-.81-.467-1.297-.719-.252-.144-.523-.27-.703-.359l-.108-.054c-.234-.125-.486-.233-.685-.323a22.08 22.08 0 0 0-1.855-.754l-.18-.072-.685-.234c-.27-.09-.54-.18-.828-.27a83.854 83.854 0 0 1-.848-.25 9.245 9.245 0 0 0-.9-.216 11.364 11.364 0 0 0-.973-.197l-.306-.054c-.234-.036-.469-.072-.667-.108a27.13 27.13 0 0 0-1.784-.216l-.216-.018c-.288-.017-.558-.035-.847-.035l-2.504-.072h-.342c-.27-.018-.54-.018-.775-.018a341.267 341.267 0 0 1-1.801-2.694l-1.856-2.532-.108-.126a32.437 32.437 0 0 0-1.73-1.813 22.873 22.873 0 0 0-1.387-1.257c-.433-.36-.847-.683-1.19-.935a17.94 17.94 0 0 1-.378-.287 14.998 14.998 0 0 0-.973-.646l-.198-.18-.9-.484c-.235-.126-.45-.234-.721-.378l-.09-.036a16.836 16.836 0 0 0-3.748-1.364 47.87 47.87 0 0 0-1.152-.252 7.589 7.589 0 0 0-.505-.09l-.234-.036s-.577-.09-.721-.125l-.613-.09c-.81-.108-1.71-.216-2.72-.323a145.1 145.1 0 0 0-3.693-.287s-.937-.055-1.1-.055a136.26 136.26 0 0 0-4.071-.125c-.72-.018-1.46-.018-2.198-.018-2.685 0-5.459.09-7.837.18l-2.63.107c-.793.036-1.586.072-2.433.09-2.234.09-4.846.18-7.369.18-.864 0-1.747-.018-2.648-.036l-1.694-.054c-3.026-.126-5.675-.431-8.053-.916l-.216-.036-.18-.054-.343-.072c-.108-.018-.216-.053-.36-.09l-.216-.053c-.397-.09-.775-.198-1.171-.306l-.217-.071-.252-.055-.486-.161-.378-.126-.667-.233c-.144-.054-.306-.108-.505-.197-.396-.144-.792-.324-1.242-.521l-.235-.108c-.108-.054-.216-.09-.342-.162l-.144-.072-.325-.161-.198-.108-.252-.126c-.072-.036-.126-.071-.198-.108l-.288-.161c-.144-.072-.289-.162-.469-.27l-.108-.071c-.162-.09-.306-.198-.468-.288l-.09-.053c-.162-.108-.307-.198-.505-.342l-.09-.071c-.162-.108-.324-.216-.468-.342l-1.154-.862c16.954-5.926 40.07-10.793 58.14-11.08 32.61.521 81.65 15.947 81.2 25.608-.415 9.751-3.207 31.499-25.692 66.912zM16.264 63.04c-4.287-12.41-5.206-21.101-5.459-26.29-.144-2.892 4.127-6.286 11.045-9.627v3.466c0 .162.018.342.018.45l.018.359c0 .269.017.538.036.7.252 3.448 1.207 10.128 4.72 15.982-3.08 2.981-7.08 7.705-10 14.098l-.378.862zm163.103-37.21C166.972 12.669 121.067.835 92.204.368h-.36c-28.899.466-74.787 12.3-87.182 25.464C.59 30.16-.095 34.433.032 37.253c.99 20.76 10.197 45.02 27.385 72.083C41.36 131.3 66.44 152.472 80.15 163.138a52.174 52.174 0 0 0 5.333 3.646l.306.18 6.216 4.561 6.18-4.526.251-.161c1.045-.629 2.83-1.688 5.081-3.448 11.098-8.62 38.52-31.14 53.058-54.054 17.188-27.062 26.412-51.324 27.403-72.083.145-2.838-.54-7.111-4.612-11.421z" fill="#032336" mask="url(#f)"/></g><path d="M130.764 65.95a41.82 41.82 0 0 0-.217-2.263c-.072-.377-.143-.718-.197-1.041-.09-.36-.199-.7-.307-1.006a13.765 13.765 0 0 0-1.135-2.316 11.516 11.516 0 0 0-.649-.988c-.125-.18-.252-.341-.378-.521-.144-.162-.27-.341-.414-.503-.144-.162-.27-.323-.433-.485a18.881 18.881 0 0 0-2.396-2.244c-.36-.27-.702-.54-1.08-.773-.18-.125-.38-.251-.56-.377a13.196 13.196 0 0 0-.522-.323 14.43 14.43 0 0 0-.9-.503c-.163-.09-.325-.161-.487-.251-.198-.09-.396-.198-.612-.288-.45-.197-.901-.377-1.352-.556-.162-.054-.342-.126-.522-.18-.216-.072-.415-.144-.63-.197-.217-.072-.433-.126-.632-.18-.216-.054-.432-.108-.63-.143-.216-.055-.414-.09-.63-.144a38.727 38.727 0 0 1-.631-.108c-.414-.072-.829-.108-1.243-.144-.234-.018-.45-.035-.667-.035a329.5 329.5 0 0 1-1.892-.055c-.162 0-.324 0-.468-.018h-.36c-.307-.017-.595-.017-.847-.017-.955-.018-1.694 0-2.27 0-1.55.035-9.801.466-9.801.466l6.288-2.873-2.163-3.232-.522-.79c-.216-.306-.414-.61-.613-.898-.017-.018-.017-.036-.035-.054 0-.018-.018-.018-.036-.054-.036-.054-.072-.09-.126-.162l-.018-.018c-.055-.072-.109-.143-.18-.215a20.193 20.193 0 0 0-1.514-1.635 14.329 14.329 0 0 0-.937-.843c-.27-.216-.558-.45-.847-.647a11.32 11.32 0 0 0-1.369-.898c-.018-.018-.036-.018-.036-.036-.198-.108-.379-.197-.576-.305a8.437 8.437 0 0 0-1.91-.7 13.24 13.24 0 0 0-.973-.198l-.27-.054c-.073-.017-.145-.036-.217-.036a5.623 5.623 0 0 0-.54-.09 6.152 6.152 0 0 1-.559-.09 58.512 58.512 0 0 0-2.324-.287c-1.009-.09-2.126-.18-3.35-.25l-1.028-.055a120.677 120.677 0 0 0-3.873-.126c-3.08-.071-6.27.037-9.513.162-.81.036-1.621.054-2.432.09-.883.036-1.766.072-2.666.09-3.514.143-7.027.233-10.504.143a60.574 60.574 0 0 1-1.856-.072c-3.099-.125-6.27-.449-9.422-1.095a5.065 5.065 0 0 1-.56-.126 15.177 15.177 0 0 1-.882-.197 20.509 20.509 0 0 1-1.73-.467 12.117 12.117 0 0 1-.756-.234c-.054-.017-.126-.035-.18-.053-.235-.072-.45-.144-.685-.234-.162-.054-.342-.108-.504-.18-.288-.107-.595-.215-.865-.323-.576-.215-1.135-.466-1.711-.718-.289-.126-.577-.251-.847-.395a7.165 7.165 0 0 1-.829-.431c-.253-.126-.505-.27-.757-.413-.306-.162-.594-.341-.883-.52-.27-.162-.54-.324-.792-.504-.27-.18-.541-.341-.793-.538-.27-.18-.54-.378-.793-.575v.772c0 .054 0 .108.018.162 0 .161.018.323.018.52 0 .108.018.216.018.324.198 2.711.919 8.08 3.621 12.552l.397.647a15.514 15.514 0 0 0 3.063 3.376c.018.018.036.036.054.036l.108.054a.737.737 0 0 0 .162.09c.018 0 .036.018.054.036a31.672 31.672 0 0 0 3.603 1.723c.144.054.27.108.415.162.108.036.234.09.342.126 1.153.413 2.414.754 3.693.897.036 0 .055.019.073.019h.017s-2.252.054-2.774.054c-2.378.017-5.55.161-8.216.682a7.607 7.607 0 0 1-.396.323c-2.666 2.317-5.549 5.872-9.62 12.176-.217.34-.433.664-.65 1.023-.324.503-.666 1.042-1.008 1.58 0 0 3.063-3.34 3.333-3.627 3.891-4.292 8.684-7.165 11.206-8.1 0 0-3.873 3.592-7.783 12.05a51.045 51.045 0 0 0-1.892 4.688c10.594-12.697 23.007-17.294 23.962-17.617l-.018.018c-.054.036-.09.09-.144.143-12.954 11.96-17.638 25.34-19.206 34.947 3.316-6.07 8.612-10.972 11.387-12.481 0 0-3.297 4.077-5.928 13.002-.81 2.747-1.297 5.171-1.567 7.2-.018.09 1.64 2.246 1.64 2.246 6.81-14.474 17.043-22.897 21.439-26.022 0 0 .018 0 .018-.018 1.928-1.562 3.135-2.298 3.135-2.298-10 10.72-14.125 21.98-15.656 30.995 3.369-7.434 7.638-12.426 9.818-14.69 1.208-1.418 2.019-2.154 2.109-2.244-8.919 14.061-8.252 27.206-6.793 34.497l2.27 2.497c.109-.396.415-1.365.523-1.742 4.684-15.893 14.017-25.662 16.629-28.159l2.702-2.801c-.612.862-7.152 10.47-7.909 28.32-.198 4.758-.54 10.218.865 15.839l2.18 2.227c-.612-8.53 1.568-17.096 3.423-20.526 0 0-.667 6.446 2.612 17.527 1.658 5.584 3.64 9.625 5.225 12.3 1.117 1.886 6.396 7.938 9.35 11.278.397.45.74.845 1.046 1.168.09.053.594.628.756.754.163-.126.595-.413.92-.61.594-.36 1.459-.863 2.522-1.6.252-.178.522-.358.774-.556.27-.197.559-.412.865-.646.216-.18.45-.341.684-.539.019-.018.055-.036.073-.054-10.504-9.05-16.827-24.513-17.026-24.997 4.486 6.662 13.675 13.001 17.98 15.749a55.928 55.928 0 0 1-2.162-2.335c-.287-.323-.576-.646-.846-.97-.252-.304-.523-.61-.757-.897-.306-.395-.63-.772-.937-1.185-.288-.36-.576-.737-.828-1.096-.27-.377-.559-.754-.83-1.15l-.504-.735c-.324-.486-.648-.97-.954-1.473-.163-.252-.307-.503-.45-.736-.163-.252-.307-.503-.451-.737a14.598 14.598 0 0 1-.414-.718c-.145-.27-.289-.52-.433-.772a6.697 6.697 0 0 1-.252-.503c-.343-.647-.667-1.329-.991-1.993-.072-.18-.163-.36-.235-.539-.107-.251-.234-.503-.342-.772l-.324-.755c-.108-.251-.198-.502-.306-.772a28.447 28.447 0 0 1-.739-2.083c-.09-.27-.18-.539-.252-.79-.09-.27-.163-.539-.235-.808a24.388 24.388 0 0 1-.432-1.634c-.036-.162-.09-.341-.126-.503-.036-.126-.054-.27-.09-.413a35.984 35.984 0 0 1-.559-3.16 6.24 6.24 0 0 1-.072-.575c-.036-.341-.09-.683-.108-1.042-.018-.27-.054-.52-.072-.79l-.054-.683c-.018-.233-.018-.449-.036-.682 0-.215-.018-.43-.018-.629-.018-.449-.018-.897-.018-1.364 0-.682.018-1.383.036-2.066.018-.682.054-1.382.108-2.083.018-.34.054-.682.072-1.023.036-.341.072-.682.09-1.042.415-4.094 1.19-8.17 2.379-12.05-3.928 3.269-7.459 6.645-9.351 9.464.198-.467 5.783-14.115 15.152-23.273.756-.736 5.152-4.544 5.891-5.136 2.973-2.37 6.432-4.005 10.36-4.615.324-.054.666-.09 1.009-.126a3.51 3.51 0 0 1 .414-.036c.18-.018.36-.036.559-.036 3.927-.251 6.9-.323 9.26-.234.216 0 .414.018.613.037 1.945.09 3.458.305 4.756.7.126.036.252.072.36.108 1.675.556 2.883 1.346 4.162 2.406.27.234.559.467.847.718 0 0 .036-.305.072-.79.054-1.31.216-4.13.072-6.752" fill="#E8E8E8"/><g transform="translate(22.922 29.566)"><mask id="h" fill="#fff"><use xlink:href="#g"/></mask><path d="M107.842 36.383a42.306 42.306 0 0 0-.216-2.262c-.072-.377-.144-.719-.198-1.042-.09-.36-.198-.7-.307-1.005a13.823 13.823 0 0 0-1.135-2.317 11.666 11.666 0 0 0-.648-.988c-.126-.18-.253-.341-.378-.52-.145-.162-.27-.342-.415-.503-.144-.162-.27-.323-.432-.485a18.92 18.92 0 0 0-2.397-2.245c-.36-.27-.702-.539-1.08-.772-.18-.126-.379-.251-.56-.377a11.04 11.04 0 0 0-.522-.323 14.43 14.43 0 0 0-.9-.503c-.163-.09-.325-.162-.487-.252-.198-.09-.396-.197-.612-.287-.45-.198-.901-.377-1.352-.557-.162-.053-.342-.126-.522-.18-.216-.071-.414-.143-.63-.197-.217-.072-.433-.125-.631-.18a10.536 10.536 0 0 0-.631-.143c-.216-.054-.414-.09-.63-.144a52.76 52.76 0 0 1-.63-.107 14.56 14.56 0 0 0-1.244-.144c-.234-.018-.45-.036-.666-.036-.685-.018-1.334-.036-1.892-.054-.162 0-.325 0-.469-.018h-.36c-.306-.018-.595-.018-.847-.018-.955-.018-1.694 0-2.27 0-1.55.036-9.801.467-9.801.467l6.288-2.873-2.162-3.233-.523-.79c-.216-.305-.414-.61-.612-.898-.018-.018-.018-.036-.036-.054 0-.018-.018-.018-.036-.053-.036-.055-.072-.09-.127-.162l-.017-.018c-.055-.072-.108-.144-.18-.216a20.372 20.372 0 0 0-1.514-1.634 14.2 14.2 0 0 0-.937-.844c-.27-.215-.558-.449-.847-.646l-.216-.162c-.378-.27-.757-.52-1.153-.736-.018-.018-.036-.018-.036-.036-.198-.108-.378-.198-.576-.305a8.412 8.412 0 0 0-1.91-.7c-.306-.072-.63-.144-.973-.198l-.27-.054c-.072-.018-.144-.036-.216-.036-.18-.036-.36-.072-.541-.09a5.99 5.99 0 0 1-.559-.09 59.447 59.447 0 0 0-2.323-.287c-1.01-.09-2.126-.18-3.352-.252l-1.027-.053a118.83 118.83 0 0 0-3.873-.126c-3.08-.072-6.27.036-9.513.162-.81.035-1.621.054-2.432.09-.883.035-1.766.071-2.667.09-3.513.143-7.026.233-10.503.143-.612-.018-1.243-.036-1.856-.072-3.099-.126-6.27-.449-9.422-1.095a5.065 5.065 0 0 1-.559-.126 16.003 16.003 0 0 1-.883-.198 20.646 20.646 0 0 1-1.73-.467 11.877 11.877 0 0 1-.756-.233c-.054-.018-.126-.036-.18-.054-.234-.072-.45-.144-.685-.233-.162-.054-.342-.108-.504-.18-.289-.107-.595-.215-.865-.323-.577-.216-1.135-.467-1.712-.719a12.216 12.216 0 0 1-.846-.394 7.286 7.286 0 0 1-.83-.431 16.18 16.18 0 0 1-.756-.414c-.306-.161-.594-.34-.883-.52a12.23 12.23 0 0 1-.792-.503c-.27-.18-.54-.341-.793-.539-.27-.18-.54-.377-.793-.574v.772c0 .053 0 .108.018.161 0 .162.019.323.019.521 0 .108.017.216.017.323.198 2.712.92 8.081 3.622 12.553l.396.646a15.489 15.489 0 0 0 3.063 3.376c.018.018.036.036.054.036l.108.054c.054.036.108.072.162.09.018 0 .036.018.054.036a31.672 31.672 0 0 0 3.604 1.724c.144.054.27.108.414.161.108.036.234.09.342.126 1.153.413 2.414.754 3.693.898.037 0 .055.018.072.018h.019s-2.252.054-2.775.054c-2.378.018-5.549.162-8.215.682-.127.108-.253.216-.397.324-2.666 2.316-5.549 5.872-9.62 12.175-.217.341-.433.665-.65 1.024-.323.502-.666 1.041-1.008 1.58 0 0 3.063-3.34 3.333-3.628 3.892-4.292 8.684-7.165 11.206-8.098 0 0-3.873 3.591-7.783 12.05a51.145 51.145 0 0 0-1.892 4.686C15.742 29.703 28.155 25.106 29.11 24.783l-.018.018c-.054.035-.09.09-.144.143C15.994 36.904 11.31 50.283 9.742 59.891c3.316-6.07 8.612-10.973 11.387-12.481 0 0-3.297 4.076-5.928 13.001-.81 2.748-1.297 5.172-1.567 7.202-.018.09 1.64 2.244 1.64 2.244 6.81-14.474 17.043-22.896 21.44-26.02 0 0 .017 0 .017-.019 1.928-1.562 3.135-2.299 3.135-2.299C29.867 52.24 25.741 63.5 24.21 72.515c3.369-7.435 7.639-12.427 9.819-14.69 1.207-1.419 2.017-2.154 2.107-2.244-8.917 14.06-8.25 27.206-6.791 34.497l2.27 2.496c.108-.395.414-1.365.522-1.742 4.684-15.893 14.017-25.662 16.63-28.158l2.702-2.801c-.613.862-7.153 10.47-7.91 28.32-.198 4.758-.54 10.218.865 15.838l2.18 2.227c-.613-8.53 1.568-17.096 3.424-20.526 0 0-.667 6.447 2.612 17.527 1.657 5.585 3.64 9.626 5.225 12.301 1.117 1.886 6.395 7.938 9.35 11.278.396.45.739.844 1.045 1.167.09.054.595.629.757.755.162-.126.594-.414.918-.611.595-.36 1.46-.862 2.523-1.598.252-.18.522-.36.774-.557.27-.197.56-.413.865-.646.217-.18.45-.342.685-.54.018-.017.054-.035.072-.053-10.504-9.05-16.827-24.513-17.026-24.998 4.487 6.663 13.675 13.002 17.981 15.75a56.249 56.249 0 0 1-2.162-2.335c-.288-.323-.577-.646-.847-.97-.252-.305-.522-.61-.757-.898-.306-.395-.63-.772-.937-1.185a21.76 21.76 0 0 1-.828-1.095c-.27-.377-.559-.755-.829-1.15l-.504-.736c-.325-.485-.65-.97-.955-1.473-.163-.25-.307-.502-.45-.736-.163-.251-.307-.503-.451-.736a14.847 14.847 0 0 1-.415-.718c-.144-.27-.288-.521-.432-.772a6.438 6.438 0 0 1-.252-.504c-.343-.646-.667-1.328-.991-1.993-.072-.18-.162-.359-.234-.539-.109-.251-.234-.502-.343-.772l-.324-.754c-.108-.251-.198-.503-.306-.772a28.538 28.538 0 0 1-.739-2.083c-.09-.27-.18-.54-.252-.79-.09-.27-.162-.54-.234-.808a24.326 24.326 0 0 1-.433-1.635c-.036-.161-.09-.34-.126-.502-.036-.126-.054-.27-.09-.413a36.224 36.224 0 0 1-.558-3.161 6.07 6.07 0 0 1-.072-.575c-.036-.341-.09-.682-.108-1.041-.019-.27-.055-.521-.072-.79l-.055-.683c-.017-.234-.017-.449-.036-.682 0-.216-.018-.432-.018-.629-.018-.449-.018-.898-.018-1.365 0-.682.018-1.382.036-2.065a41.71 41.71 0 0 1 .108-2.083c.018-.341.055-.683.073-1.024.035-.34.072-.682.09-1.041.414-4.094 1.189-8.171 2.378-12.05-3.928 3.268-7.46 6.645-9.35 9.464.198-.467 5.782-14.115 15.151-23.274.757-.736 5.153-4.543 5.891-5.136 2.973-2.37 6.432-4.004 10.36-4.615.324-.054.667-.09 1.009-.126.144-.017.288-.035.414-.035.18-.018.36-.036.559-.036 3.927-.252 6.9-.324 9.26-.234.216 0 .415.018.612.036 1.946.09 3.46.305 4.757.7.126.036.252.072.36.108 1.676.557 2.883 1.347 4.162 2.407.27.233.559.467.847.718 0 0 .036-.305.072-.79.054-1.311.216-4.13.072-6.753" mask="url(#h)"/></g><path d="M95.38 52.338c-.199-.162-1.964-1.527-4.81-3.053-.09-.054-.199-.108-.307-.162-.072-.054-.162-.09-.234-.126a31.634 31.634 0 0 0-1.748-.843c-2.126 1.005-5.044 1.49-8.486.556-2.882-.772-4.9-3.16-5.819-4.4-3.225-.395-8.378-1.382-8.378-1.382h11.387c4.648-.126 6.035.25 9.152 1.49 1.063.413 2.45 1.365 3.874 2.55.09.072.162.144.234.198l.306.251c1.802 1.527 3.585 3.34 4.829 4.92" fill="#032336"/></g></svg>